<svg xmlns="http://www.w3.org/2000/svg" xmlns:svg="http://www.w3.org/2000/svg" xmlns:xlink="http://www.w3.org/1999/xlink" id="svg8" width="1024" height="500" version="1.1" viewBox="0 0 270.933 132.292"><defs id="defs2"><filter style="color-interpolation-filters:sRGB" id="filter1330" width="1.018" height="1.027" x="-.009" y="-.013"><feGaussianBlur id="feGaussianBlur1332" stdDeviation="1.587"/></filter></defs><metadata id="metadata5"/><g id="layer1" transform="translate(0,-164.70832)"><image id="image165" width="423.333" height="282.222" x="-2.646" y="109.852" preserveAspectRatio="none" transform="matrix(0.91911764,0,0,0.91911764,-3.1886467,43.765704)" xlink:href="16596798443_44b5528514_o.jpg" style="opacity:1;filter:url(#filter1330)"/><g id="g296" transform="matrix(0.89122807,0,0,0.89122807,76.42427,209.48852)"><g id="g256"><path id="path254" d="m 42.998,40.184 c 0,1.547 -1.27,2.814 -2.814,2.814 H 7.815 C 6.266,42.999 5,41.73 5,40.184 V 7.814 C 5,6.266 6.267,5.001 7.814,5.001 h 32.37 C 41.732,5.001 43,6.267 43,7.814 Z" style="fill:#efefef"/></g><path id="path263" d="M 42.999,40.184 43,21.446 c -0.016,-0.015 -0.029,-0.03 -0.045,-0.045 -0.057,-0.056 -0.113,-0.114 -0.169,-0.168 -0.056,-0.056 -0.111,-0.112 -0.166,-0.167 -0.058,-0.057 -0.114,-0.115 -0.17,-0.171 -0.056,-0.056 -0.112,-0.111 -0.167,-0.166 -0.057,-0.057 -0.113,-0.114 -0.17,-0.17 -0.055,-0.056 -0.111,-0.112 -0.168,-0.167 -0.057,-0.057 -0.113,-0.114 -0.17,-0.171 -0.057,-0.056 -0.112,-0.113 -0.17,-0.168 -0.055,-0.055 -0.109,-0.112 -0.166,-0.167 -0.057,-0.056 -0.113,-0.114 -0.17,-0.171 -0.056,-0.055 -0.11,-0.111 -0.168,-0.166 -0.055,-0.057 -0.112,-0.115 -0.17,-0.17 C 40.876,19.323 40.82,19.266 40.765,19.212 40.708,19.155 40.65,19.097 40.593,19.041 40.538,18.985 40.482,18.927 40.424,18.873 40.369,18.817 40.314,18.761 40.259,18.707 40.202,18.649 40.144,18.592 40.088,18.536 40.032,18.48 39.978,18.424 39.921,18.369 39.865,18.312 39.808,18.255 39.751,18.198 39.694,18.143 39.642,18.087 39.586,18.033 39.528,17.976 39.472,17.919 39.413,17.861 39.358,17.805 39.302,17.748 39.245,17.693 39.19,17.638 39.136,17.582 39.078,17.527 39.022,17.47 38.965,17.413 38.908,17.356 38.852,17.301 38.797,17.245 38.741,17.191 38.684,17.134 38.628,17.076 38.569,17.02 38.514,16.965 38.461,16.909 38.406,16.855 38.348,16.798 38.292,16.74 38.233,16.683 38.178,16.627 38.122,16.571 38.067,16.516 38.01,16.459 37.953,16.401 37.895,16.346 37.839,16.289 37.783,16.232 37.727,16.177 37.671,16.121 37.617,16.066 37.561,16.011 37.503,15.954 37.447,15.896 37.389,15.84 37.334,15.785 37.281,15.729 37.225,15.674 37.167,15.617 37.11,15.56 37.053,15.502 36.997,15.447 36.942,15.391 36.885,15.335 36.829,15.279 36.772,15.221 36.715,15.164 36.659,15.109 36.604,15.051 36.546,14.996 36.491,14.941 36.436,14.885 36.38,14.83 36.324,14.772 36.266,14.715 36.208,14.659 36.152,14.604 36.1,14.548 36.044,14.494 35.986,14.436 35.93,14.379 35.871,14.322 35.816,14.266 35.762,14.21 35.706,14.155 35.648,14.097 35.591,14.041 35.535,13.984 35.478,13.927 35.422,13.871 35.366,13.815 35.31,13.759 35.255,13.704 35.2,13.649 35.142,13.591 35.086,13.534 35.027,13.478 34.972,13.422 34.919,13.367 34.861,13.311 32.097,10.501 28.253,8.758 24,8.758 c -8.419,0 -15.243,6.825 -15.243,15.243 0,4.253 1.743,8.097 4.552,10.862 0.054,0.056 0.11,0.111 0.166,0.166 0.056,0.057 0.114,0.113 0.171,0.171 0.055,0.056 0.111,0.11 0.167,0.167 0.055,0.056 0.112,0.111 0.168,0.168 0.056,0.057 0.114,0.115 0.171,0.171 0.055,0.056 0.11,0.11 0.167,0.166 0.056,0.058 0.114,0.114 0.171,0.173 0.055,0.055 0.11,0.11 0.166,0.165 0.056,0.056 0.114,0.114 0.171,0.17 0.055,0.056 0.111,0.112 0.167,0.166 0.055,0.058 0.112,0.114 0.168,0.169 0.055,0.057 0.114,0.115 0.171,0.171 0.055,0.056 0.111,0.112 0.166,0.166 0.057,0.058 0.115,0.115 0.172,0.173 0.055,0.056 0.11,0.111 0.166,0.166 0.056,0.057 0.114,0.114 0.17,0.17 0.055,0.057 0.111,0.111 0.166,0.166 0.056,0.057 0.112,0.113 0.168,0.17 0.057,0.057 0.114,0.113 0.171,0.17 0.055,0.056 0.111,0.111 0.167,0.166 0.057,0.059 0.114,0.113 0.171,0.172 0.055,0.056 0.11,0.111 0.167,0.166 0.056,0.057 0.113,0.113 0.17,0.171 0.055,0.055 0.11,0.11 0.167,0.166 0.055,0.057 0.113,0.114 0.17,0.171 0.055,0.056 0.111,0.111 0.166,0.166 0.055,0.057 0.113,0.113 0.168,0.169 0.056,0.057 0.114,0.114 0.172,0.171 0.055,0.057 0.11,0.111 0.165,0.166 0.057,0.059 0.114,0.115 0.172,0.171 0.054,0.056 0.11,0.111 0.165,0.166 0.057,0.058 0.115,0.114 0.171,0.171 0.055,0.057 0.11,0.112 0.166,0.167 0.056,0.056 0.112,0.112 0.169,0.168 0.056,0.058 0.113,0.114 0.17,0.171 0.056,0.057 0.111,0.112 0.167,0.168 0.057,0.057 0.114,0.113 0.171,0.17 0.055,0.056 0.11,0.111 0.167,0.166 0.055,0.058 0.113,0.113 0.171,0.172 0.054,0.055 0.11,0.11 0.166,0.166 0.055,0.056 0.112,0.112 0.167,0.168 0.056,0.058 0.114,0.115 0.172,0.17 0.055,0.057 0.111,0.113 0.166,0.168 0.057,0.057 0.114,0.115 0.171,0.17 0.055,0.057 0.111,0.113 0.166,0.167 0.057,0.057 0.115,0.114 0.17,0.171 0.055,0.055 0.111,0.111 0.167,0.166 0.056,0.056 0.112,0.113 0.168,0.168 0.015,0.016 0.031,0.029 0.046,0.045 H 40.18 c 1.552,0 2.819,-1.27 2.819,-2.816 z" style="fill:url(#SVGID_1_)"/><circle id="circle265" cx="24" cy="23.999" r="15.244" style="fill:#f26119"/><circle id="circle267" cx="24" cy="23.999" r="13.372" style="fill:#383838"/><path id="path269" d="m 10.227,9.212 c 0,0.561 -0.563,1.014 -1.055,1.014 v 0 C 8.681,10.226 8.116,9.772 8.116,9.212 V 9.131 C 8.116,8.57 8.68,8.116 9.172,8.116 v 0 c 0.491,0 1.055,0.455 1.055,1.015 z" style="fill:#383838"/><path id="path271" d="m 39.885,9.212 c 0,0.561 -0.563,1.014 -1.055,1.014 v 0 c -0.493,0 -1.057,-0.454 -1.057,-1.014 V 9.131 c 0,-0.561 0.563,-1.015 1.057,-1.015 v 0 c 0.49,0 1.055,0.455 1.055,1.015 z" style="fill:#383838"/><path id="path273" d="m 10.227,38.868 c 0,0.563 -0.563,1.016 -1.055,1.016 v 0 c -0.491,0 -1.056,-0.452 -1.056,-1.016 v -0.08 c 0,-0.563 0.564,-1.015 1.056,-1.015 v 0 c 0.491,0 1.055,0.453 1.055,1.015 z" style="fill:#383838"/><path id="path275" d="m 39.885,38.87 c 0,0.56 -0.563,1.015 -1.056,1.015 v 0 c -0.492,0 -1.056,-0.455 -1.056,-1.015 v -0.082 c 0,-0.562 0.563,-1.015 1.056,-1.015 v 0 c 0.491,0 1.056,0.453 1.056,1.015 z" style="fill:#383838"/><circle id="circle277" cx="24" cy="23.999" r="5.827" style="fill:#2c2c2c"/></g><text style="font-style:normal;font-weight:400;font-size:10.58333302px;line-height:1.25;font-family:sans-serif;letter-spacing:0;word-spacing:0;fill:#000;fill-opacity:1;stroke:#000;stroke-width:.26458333;stroke-miterlimit:4;stroke-dasharray:none;stroke-opacity:1" id="text300" x="130.439" y="228.132" xml:space="preserve"><tspan id="tspan298" x="130.439" y="228.132" style="font-style:normal;font-variant:normal;font-weight:700;font-stretch:normal;font-size:18.34444427px;line-height:1;font-family:Ubuntu;-inkscape-font-specification:'Ubuntu Bold';fill:#fff;fill-opacity:1;stroke-width:.26458333;stroke-miterlimit:4;stroke-dasharray:none;stroke:#000;stroke-opacity:1">Vanilla</tspan><tspan style="font-style:normal;font-variant:normal;font-weight:700;font-stretch:normal;font-size:18.34444427px;line-height:1;font-family:Ubuntu;-inkscape-font-specification:'Ubuntu Bold';fill:#fff;fill-opacity:1;stroke-width:.26458333;stroke-miterlimit:4;stroke-dasharray:none;stroke:#000;stroke-opacity:1" id="tspan1230" x="130.439" y="246.811">Music</tspan></text></g></svg>